Coordinates
version=1
nRows=54
nColumns=12
inDegrees=yes

Units are S.I. units (second, meters, Newtons, ...)
Angles are in degrees

endheader
time	SC_y	SC_z	SC_x	AC_y	AC_z	AC_x	GH_y	GH_z	GH_yy	EL_x	PS_y
       0.0              -29.41          10.65          11.41          58.25         -11.65          14.14           55.8          59.76          169.2          17.58          154.4
   0.02812              -29.41          10.65          11.41          58.25         -11.65          14.14          55.77          59.75          169.2          17.59          154.3
   0.05623              -29.41          10.65          11.42          58.25         -11.65          14.14          55.74          59.73          169.2          17.61          154.3
   0.08435              -29.42          10.65          11.42          58.25         -11.64          14.14           55.7          59.72          169.2          17.63          154.3
    0.1125              -29.42          10.65          11.42          58.25         -11.64          14.14          55.66          59.71          169.2          17.64          154.3
    0.1406              -29.43          10.65          11.42          58.25         -11.64          14.14          55.62          59.69          169.2          17.66          154.3
    0.1687              -29.43          10.65          11.42          58.25         -11.64          14.14          55.58          59.68          169.2          17.69          154.3
    0.1968              -29.44          10.66          11.42          58.25         -11.64          14.14          55.53          59.66          169.2          17.71          154.3
    0.2249              -29.44          10.66          11.42          58.25         -11.64          14.13          55.48          59.64          169.2          17.73          154.3
     0.253              -29.45          10.66          11.42          58.25         -11.64          14.13          55.43          59.62          169.2          17.76          154.2
    0.2812              -29.46          10.66          11.42          58.25         -11.64          14.13          55.37           59.6          169.2          17.78          154.2
    0.3093              -29.46          10.66          11.43          58.25         -11.64          14.13          55.31          59.58          169.2          17.81          154.2
    0.3374              -29.47          10.67          11.43          58.25         -11.64          14.13          55.24          59.56          169.2          17.85          154.2
    0.3655              -29.48          10.67          11.43          58.25         -11.64          14.13          55.17          59.53          169.2          17.88          154.2
    0.3936              -29.49          10.67          11.43          58.25         -11.64          14.12          55.09          59.51          169.2          17.92          154.1
    0.4217               -29.5          10.67          11.43          58.25         -11.63          14.12          55.01          59.48          169.2          17.96          154.1
    0.4498              -29.51          10.68          11.44          58.26         -11.63          14.12          54.92          59.44          169.2           18.0          154.1
     0.478              -29.52          10.68          11.44          58.26         -11.63          14.12          54.82          59.41          169.2          18.05          154.1
    0.5061              -29.53          10.68          11.44          58.26         -11.63          14.11          54.71          59.37          169.1           18.1          154.0
    0.5342              -29.54          10.69          11.44          58.26         -11.63          14.11          54.59          59.33          169.1          18.16          154.0
    0.5623              -29.56          10.69          11.45          58.26         -11.63          14.11          54.46          59.28          169.1          18.22          154.0
    0.5904              -29.58          10.69          11.45          58.26         -11.62           14.1          54.32          59.23          169.1          18.29          153.9
    0.6185              -29.59           10.7          11.46          58.26         -11.62           14.1          54.16          59.17          169.1          18.37          153.9
    0.6467              -29.61           10.7          11.46          58.26         -11.62          14.09          53.98          59.11          169.1          18.45          153.8
    0.6748              -29.64          10.71          11.47          58.26         -11.62          14.09          53.79          59.04          169.1          18.55          153.8
    0.7029              -29.66          10.72          11.47          58.26         -11.61          14.08          53.57          58.96          169.1          18.65          153.7
     0.731              -29.69          10.72          11.48          58.26         -11.61          14.07          53.32          58.88          169.1          18.77          153.6
    0.7591              -29.72          10.73          11.48          58.26         -11.61          14.07          53.05          58.78          169.1           18.9          153.5
    0.7872              -29.76          10.74          11.49          58.26          -11.6          14.06          52.74          58.67          169.1          19.05          153.4
    0.8154               -29.8          10.75           11.5          58.26          -11.6          14.05          52.39          58.54          169.1          19.22          153.3
    0.8435              -29.84          10.77          11.51          58.26         -11.59          14.04          51.98           58.4          169.1          19.42          153.2
    0.8716              -29.89          10.78          11.52          58.26         -11.58          14.02          51.52          58.23          169.1          19.64          153.1
    0.8997              -29.95           10.8          11.54          58.26         -11.58          14.01          50.99          58.04          169.0           19.9          152.9
    0.9278              -30.03          10.81          11.55          58.27         -11.57          13.99          50.37          57.82          169.0           20.2          152.7
    0.9559              -30.11          10.84          11.57          58.27         -11.56          13.97          49.64          57.57          169.0          20.55          152.5
     0.984              -30.21          10.86          11.59          58.27         -11.55          13.94          48.78          57.26          169.0          20.96          152.3
     1.012              -30.32          10.89          11.62          58.27         -11.53          13.92          47.77           56.9          168.9          21.45          151.9
      1.04              -30.46          10.93          11.65          58.28         -11.51          13.88          46.55          56.47          168.9          22.03          151.6
     1.068              -30.63          10.98          11.69          58.28         -11.49          13.84          45.08          55.94          168.9          22.74          151.1
     1.097              -30.83          11.03          11.74          58.28         -11.47          13.79          43.27           55.3          168.8          23.61          150.6
     1.125              -31.09           11.1          11.79          58.29         -11.43          13.73          41.05          54.51          168.8          24.68          149.9
     1.153               -31.4          11.19          11.86           58.3         -11.39          13.65          38.28          53.53          168.7          26.02          149.1
     1.181               -31.8          11.29          11.95           58.3         -11.34          13.55          34.79          52.29          168.6           27.7          148.1
     1.209               -32.3          11.43          12.07          58.31         -11.28          13.42          30.35          50.71          168.4          29.84          146.7
     1.237              -32.95           11.6          12.21          58.33          -11.2          13.26          24.67          48.69          168.3          32.57          145.0
     1.265              -33.78          11.83           12.4          58.35         -11.09          13.05          17.38          46.09          168.1          36.09          142.8
     1.293              -34.84          12.11          12.64          58.37         -10.96          12.79          8.064          42.78          167.8          40.57          140.0
     1.321              -36.18          12.47          12.94           58.4         -10.79          12.46         -3.646          38.62          167.5          46.21          136.5
      1.35               -37.8          12.91          13.31          58.43         -10.58          12.05         -17.92          33.55          167.0          53.09          132.2
     1.378              -39.68          13.42          13.73          58.47         -10.34          11.58         -34.46          27.66          166.6          61.06          127.3
     1.406              -41.72          13.96          14.19          58.51         -10.09          11.08         -52.37           21.3          166.0          69.68          121.9
     1.434              -43.76          14.51          14.65          58.56         -9.828          10.57         -70.28          14.93          165.5          78.31          116.5
     1.462              -45.65          15.02          15.08           58.6          -9.59           10.1         -86.82          9.047          165.0          86.28          111.6
      1.49              -47.27          15.46          15.44          58.63         -9.384          9.696         -101.1          3.973          164.6          93.15          107.3
